<?xml version="1.0" encoding="UTF-8"?>
<svg xmlns="http://www.w3.org/2000/svg" version="1.1" width="300" height="300" viewBox="0 0 300 300"><rect x="0" y="0" width="300" height="300" fill="#ffffff"/><g transform="scale(8.108)"><g transform="translate(0,0)"><path fill-rule="evenodd" d="M10 0L10 2L11 2L11 0ZM12 0L12 1L15 1L15 4L14 4L14 3L13 3L13 2L12 2L12 4L13 4L13 5L11 5L11 6L10 6L10 4L11 4L11 3L8 3L8 4L9 4L9 5L8 5L8 7L9 7L9 8L6 8L6 9L5 9L5 8L0 8L0 9L4 9L4 10L3 10L3 11L4 11L4 12L3 12L3 14L4 14L4 15L5 15L5 14L6 14L6 15L7 15L7 14L8 14L8 13L10 13L10 14L9 14L9 16L8 16L8 17L7 17L7 16L5 16L5 18L4 18L4 19L5 19L5 18L6 18L6 19L7 19L7 18L11 18L11 17L12 17L12 18L13 18L13 19L12 19L12 21L13 21L13 20L14 20L14 21L16 21L16 22L15 22L15 23L14 23L14 24L15 24L15 25L12 25L12 23L13 23L13 22L8 22L8 21L9 21L9 20L10 20L10 21L11 21L11 20L10 20L10 19L8 19L8 20L5 20L5 21L3 21L3 20L1 20L1 18L2 18L2 19L3 19L3 17L2 17L2 16L3 16L3 15L2 15L2 14L1 14L1 15L2 15L2 16L1 16L1 18L0 18L0 21L2 21L2 22L4 22L4 23L3 23L3 24L2 24L2 23L0 23L0 24L1 24L1 25L0 25L0 29L1 29L1 25L2 25L2 27L3 27L3 29L4 29L4 27L5 27L5 29L8 29L8 31L9 31L9 32L8 32L8 37L10 37L10 36L9 36L9 35L11 35L11 34L10 34L10 33L9 33L9 32L11 32L11 33L12 33L12 34L13 34L13 35L12 35L12 37L13 37L13 36L14 36L14 37L15 37L15 36L14 36L14 35L16 35L16 36L17 36L17 37L18 37L18 36L17 36L17 35L18 35L18 34L19 34L19 33L20 33L20 34L21 34L21 33L26 33L26 34L25 34L25 35L23 35L23 34L22 34L22 35L21 35L21 36L20 36L20 35L19 35L19 36L20 36L20 37L21 37L21 36L22 36L22 37L23 37L23 36L24 36L24 37L25 37L25 35L26 35L26 37L27 37L27 36L29 36L29 35L30 35L30 37L37 37L37 33L35 33L35 32L34 32L34 31L37 31L37 30L35 30L35 28L34 28L34 27L36 27L36 28L37 28L37 26L36 26L36 25L37 25L37 22L36 22L36 21L37 21L37 18L36 18L36 17L37 17L37 14L36 14L36 13L35 13L35 12L34 12L34 11L35 11L35 9L36 9L36 8L35 8L35 9L34 9L34 8L33 8L33 9L34 9L34 11L32 11L32 12L31 12L31 10L30 10L30 8L29 8L29 6L28 6L28 5L26 5L26 4L27 4L27 3L25 3L25 1L24 1L24 0L20 0L20 1L21 1L21 3L22 3L22 4L20 4L20 2L19 2L19 1L18 1L18 2L19 2L19 4L18 4L18 3L16 3L16 2L17 2L17 1L15 1L15 0ZM26 0L26 2L28 2L28 4L29 4L29 0L28 0L28 1L27 1L27 0ZM8 1L8 2L9 2L9 1ZM23 1L23 2L22 2L22 3L23 3L23 2L24 2L24 1ZM24 3L24 5L23 5L23 7L22 7L22 6L21 6L21 7L22 7L22 8L23 8L23 9L22 9L22 10L21 10L21 11L23 11L23 12L26 12L26 11L27 11L27 10L28 10L28 9L29 9L29 8L28 8L28 6L27 6L27 9L26 9L26 11L25 11L25 10L23 10L23 9L25 9L25 8L26 8L26 6L25 6L25 3ZM15 4L15 5L13 5L13 7L12 7L12 6L11 6L11 7L12 7L12 9L11 9L11 8L10 8L10 9L11 9L11 11L6 11L6 12L7 12L7 13L6 13L6 14L7 14L7 13L8 13L8 12L10 12L10 13L11 13L11 14L10 14L10 15L11 15L11 14L13 14L13 15L12 15L12 17L14 17L14 18L18 18L18 17L19 17L19 19L14 19L14 20L18 20L18 21L17 21L17 22L16 22L16 23L17 23L17 25L18 25L18 26L19 26L19 28L18 28L18 27L17 27L17 26L16 26L16 25L15 25L15 26L16 26L16 27L17 27L17 28L18 28L18 29L17 29L17 30L16 30L16 29L14 29L14 28L15 28L15 27L14 27L14 28L13 28L13 29L12 29L12 27L13 27L13 26L12 26L12 25L10 25L10 27L11 27L11 28L10 28L10 29L9 29L9 28L8 28L8 29L9 29L9 31L11 31L11 30L13 30L13 31L12 31L12 33L15 33L15 32L14 32L14 31L15 31L15 30L16 30L16 31L17 31L17 32L16 32L16 33L19 33L19 32L18 32L18 31L20 31L20 29L22 29L22 30L21 30L21 31L23 31L23 32L26 32L26 33L27 33L27 34L29 34L29 33L27 33L27 32L26 32L26 30L27 30L27 31L28 31L28 30L27 30L27 29L28 29L28 27L27 27L27 28L26 28L26 25L27 25L27 26L28 26L28 25L29 25L29 27L30 27L30 26L31 26L31 28L33 28L33 27L34 27L34 26L35 26L35 25L34 25L34 24L36 24L36 23L34 23L34 24L33 24L33 25L32 25L32 24L31 24L31 23L32 23L32 22L33 22L33 21L34 21L34 22L35 22L35 21L34 21L34 20L36 20L36 19L35 19L35 17L36 17L36 14L35 14L35 15L34 15L34 13L30 13L30 10L29 10L29 11L28 11L28 12L27 12L27 13L24 13L24 14L22 14L22 15L24 15L24 14L25 14L25 16L23 16L23 17L24 17L24 18L23 18L23 19L22 19L22 18L20 18L20 16L21 16L21 17L22 17L22 16L21 16L21 14L20 14L20 4L19 4L19 5L18 5L18 4ZM15 5L15 6L14 6L14 7L15 7L15 8L16 8L16 9L19 9L19 8L16 8L16 7L17 7L17 6L18 6L18 7L19 7L19 6L18 6L18 5L17 5L17 6L16 6L16 5ZM9 6L9 7L10 7L10 6ZM15 6L15 7L16 7L16 6ZM24 6L24 7L25 7L25 6ZM13 8L13 9L12 9L12 10L13 10L13 11L12 11L12 13L16 13L16 14L15 14L15 15L14 15L14 16L15 16L15 17L17 17L17 14L19 14L19 13L18 13L18 12L19 12L19 10L18 10L18 12L17 12L17 13L16 13L16 11L17 11L17 10L15 10L15 9L14 9L14 8ZM31 8L31 9L32 9L32 8ZM6 9L6 10L9 10L9 9ZM13 9L13 10L14 10L14 9ZM1 10L1 11L0 11L0 13L2 13L2 12L1 12L1 11L2 11L2 10ZM36 10L36 11L37 11L37 10ZM13 11L13 12L15 12L15 11ZM4 12L4 14L5 14L5 12ZM28 13L28 14L26 14L26 16L25 16L25 19L23 19L23 20L25 20L25 21L20 21L20 20L19 20L19 21L18 21L18 22L17 22L17 23L18 23L18 24L19 24L19 25L20 25L20 26L21 26L21 28L22 28L22 29L23 29L23 30L24 30L24 31L25 31L25 29L26 29L26 28L25 28L25 29L23 29L23 28L24 28L24 27L23 27L23 28L22 28L22 26L21 26L21 25L23 25L23 24L22 24L22 23L21 23L21 24L20 24L20 23L18 23L18 22L26 22L26 24L24 24L24 25L26 25L26 24L29 24L29 25L31 25L31 24L30 24L30 22L29 22L29 21L28 21L28 22L27 22L27 21L26 21L26 20L25 20L25 19L28 19L28 20L29 20L29 18L30 18L30 21L33 21L33 20L34 20L34 19L33 19L33 20L31 20L31 19L32 19L32 18L30 18L30 17L33 17L33 18L34 18L34 17L35 17L35 16L34 16L34 15L33 15L33 14L32 14L32 16L31 16L31 14L30 14L30 13ZM29 14L29 16L28 16L28 15L27 15L27 16L28 16L28 17L26 17L26 18L28 18L28 17L30 17L30 14ZM15 15L15 16L16 16L16 15ZM9 16L9 17L10 17L10 16ZM33 16L33 17L34 17L34 16ZM6 17L6 18L7 18L7 17ZM21 19L21 20L22 20L22 19ZM5 21L5 24L7 24L7 25L6 25L6 26L5 26L5 25L4 25L4 26L3 26L3 27L4 27L4 26L5 26L5 27L6 27L6 28L7 28L7 27L9 27L9 26L7 26L7 25L9 25L9 23L8 23L8 22L7 22L7 21ZM6 22L6 23L7 23L7 24L8 24L8 23L7 23L7 22ZM28 22L28 23L29 23L29 22ZM6 26L6 27L7 27L7 26ZM19 28L19 29L18 29L18 30L19 30L19 29L20 29L20 28ZM10 29L10 30L11 30L11 29ZM29 29L29 32L32 32L32 29ZM33 29L33 30L34 30L34 29ZM30 30L30 31L31 31L31 30ZM20 32L20 33L21 33L21 32ZM33 32L33 33L34 33L34 36L36 36L36 35L35 35L35 33L34 33L34 32ZM30 34L30 35L31 35L31 36L32 36L32 35L33 35L33 34ZM22 35L22 36L23 36L23 35ZM0 0L0 7L7 7L7 0ZM1 1L1 6L6 6L6 1ZM2 2L2 5L5 5L5 2ZM30 0L30 7L37 7L37 0ZM31 1L31 6L36 6L36 1ZM32 2L32 5L35 5L35 2ZM0 30L0 37L7 37L7 30ZM1 31L1 36L6 36L6 31ZM2 32L2 35L5 35L5 32Z" fill="#000000"/></g></g></svg>
