<?xml version="1.0" encoding="UTF-8"?>
<svg xmlns="http://www.w3.org/2000/svg" version="1.1" width="300" height="300" viewBox="0 0 300 300"><rect x="0" y="0" width="300" height="300" fill="#ffffff"/><g transform="scale(8.108)"><g transform="translate(0,0)"><path fill-rule="evenodd" d="M10 0L10 2L11 2L11 0ZM12 0L12 1L15 1L15 4L14 4L14 3L13 3L13 2L12 2L12 4L14 4L14 5L11 5L11 6L10 6L10 4L11 4L11 3L8 3L8 4L9 4L9 5L8 5L8 7L9 7L9 8L6 8L6 9L5 9L5 8L0 8L0 9L1 9L1 10L0 10L0 11L1 11L1 10L2 10L2 9L5 9L5 10L6 10L6 11L7 11L7 10L8 10L8 9L9 9L9 10L11 10L11 9L12 9L12 10L13 10L13 9L14 9L14 12L13 12L13 11L12 11L12 13L13 13L13 14L11 14L11 13L10 13L10 14L11 14L11 15L10 15L10 16L6 16L6 17L7 17L7 18L6 18L6 19L5 19L5 18L4 18L4 17L5 17L5 15L3 15L3 16L4 16L4 17L3 17L3 18L2 18L2 19L4 19L4 20L6 20L6 21L7 21L7 22L6 22L6 23L7 23L7 22L8 22L8 24L5 24L5 23L4 23L4 24L3 24L3 23L1 23L1 22L2 22L2 21L1 21L1 18L0 18L0 21L1 21L1 22L0 22L0 23L1 23L1 24L0 24L0 29L1 29L1 25L2 25L2 27L7 27L7 28L6 28L6 29L7 29L7 28L8 28L8 31L9 31L9 32L8 32L8 37L9 37L9 36L10 36L10 37L11 37L11 36L10 36L10 35L11 35L11 34L10 34L10 35L9 35L9 32L11 32L11 33L12 33L12 34L13 34L13 35L12 35L12 37L13 37L13 36L14 36L14 37L17 37L17 36L14 36L14 35L16 35L16 34L15 34L15 33L17 33L17 34L18 34L18 35L19 35L19 34L20 34L20 35L21 35L21 36L19 36L19 37L21 37L21 36L22 36L22 37L23 37L23 36L24 36L24 37L25 37L25 35L26 35L26 37L27 37L27 36L29 36L29 35L30 35L30 37L37 37L37 33L35 33L35 32L34 32L34 31L37 31L37 30L35 30L35 28L34 28L34 27L36 27L36 28L37 28L37 26L36 26L36 25L37 25L37 22L36 22L36 21L37 21L37 18L36 18L36 17L37 17L37 14L36 14L36 13L35 13L35 12L34 12L34 11L35 11L35 9L36 9L36 8L35 8L35 9L34 9L34 8L33 8L33 9L34 9L34 11L32 11L32 12L31 12L31 10L30 10L30 8L29 8L29 6L28 6L28 5L26 5L26 4L27 4L27 3L25 3L25 1L24 1L24 2L22 2L22 1L21 1L21 0L19 0L19 1L18 1L18 2L19 2L19 1L20 1L20 2L21 2L21 3L22 3L22 4L19 4L19 5L20 5L20 8L19 8L19 9L20 9L20 10L22 10L22 11L19 11L19 10L18 10L18 8L16 8L16 7L17 7L17 6L18 6L18 7L19 7L19 6L18 6L18 5L17 5L17 4L16 4L16 3L17 3L17 1L15 1L15 0ZM26 0L26 2L28 2L28 4L29 4L29 0L28 0L28 1L27 1L27 0ZM8 1L8 2L9 2L9 1ZM23 3L23 4L22 4L22 5L23 5L23 8L24 8L24 9L23 9L23 11L22 11L22 12L21 12L21 14L20 14L20 12L18 12L18 11L17 11L17 9L15 9L15 8L14 8L14 6L13 6L13 7L12 7L12 6L11 6L11 7L12 7L12 9L13 9L13 8L14 8L14 9L15 9L15 10L16 10L16 11L15 11L15 12L14 12L14 13L15 13L15 14L13 14L13 15L12 15L12 17L11 17L11 16L10 16L10 17L8 17L8 18L9 18L9 19L8 19L8 22L9 22L9 23L11 23L11 22L13 22L13 23L12 23L12 25L11 25L11 24L8 24L8 27L9 27L9 29L10 29L10 30L13 30L13 31L12 31L12 33L15 33L15 32L16 32L16 31L15 31L15 29L17 29L17 28L18 28L18 29L20 29L20 30L18 30L18 31L17 31L17 32L18 32L18 33L19 33L19 32L21 32L21 31L20 31L20 30L23 30L23 31L22 31L22 32L24 32L24 30L25 30L25 32L26 32L26 33L24 33L24 34L23 34L23 33L21 33L21 34L23 34L23 35L22 35L22 36L23 36L23 35L25 35L25 34L26 34L26 33L27 33L27 34L29 34L29 33L27 33L27 32L26 32L26 30L27 30L27 31L28 31L28 30L27 30L27 29L28 29L28 27L27 27L27 26L28 26L28 25L29 25L29 27L30 27L30 26L31 26L31 28L33 28L33 27L34 27L34 26L35 26L35 25L34 25L34 24L36 24L36 23L34 23L34 24L33 24L33 25L32 25L32 24L31 24L31 23L32 23L32 22L33 22L33 21L34 21L34 22L35 22L35 21L34 21L34 20L36 20L36 19L35 19L35 17L36 17L36 14L35 14L35 15L34 15L34 13L30 13L30 10L29 10L29 11L28 11L28 12L27 12L27 13L25 13L25 12L26 12L26 11L27 11L27 10L28 10L28 9L29 9L29 8L28 8L28 6L27 6L27 9L26 9L26 11L25 11L25 8L26 8L26 6L25 6L25 8L24 8L24 5L25 5L25 4L24 4L24 3ZM15 4L15 5L16 5L16 4ZM23 4L23 5L24 5L24 4ZM9 6L9 7L10 7L10 6ZM15 6L15 7L16 7L16 6ZM21 6L21 7L22 7L22 6ZM10 8L10 9L11 9L11 8ZM20 8L20 9L21 9L21 8ZM31 8L31 9L32 9L32 8ZM6 9L6 10L7 10L7 9ZM36 10L36 11L37 11L37 10ZM4 11L4 12L3 12L3 13L4 13L4 14L5 14L5 13L4 13L4 12L5 12L5 11ZM9 11L9 12L6 12L6 13L7 13L7 14L6 14L6 15L9 15L9 14L8 14L8 13L9 13L9 12L10 12L10 11ZM0 12L0 13L1 13L1 15L0 15L0 16L1 16L1 17L2 17L2 16L1 16L1 15L2 15L2 12ZM15 12L15 13L17 13L17 14L18 14L18 15L19 15L19 13L17 13L17 12ZM22 12L22 13L23 13L23 12ZM28 13L28 14L26 14L26 16L25 16L25 19L24 19L24 21L25 21L25 22L24 22L24 23L23 23L23 22L22 22L22 21L23 21L23 20L22 20L22 18L21 18L21 19L20 19L20 20L21 20L21 21L20 21L20 22L22 22L22 23L21 23L21 25L20 25L20 24L19 24L19 23L18 23L18 22L17 22L17 21L18 21L18 20L17 20L17 21L15 21L15 20L16 20L16 18L14 18L14 17L12 17L12 18L13 18L13 19L12 19L12 21L13 21L13 20L14 20L14 21L15 21L15 23L14 23L14 24L15 24L15 25L12 25L12 26L13 26L13 27L12 27L12 29L13 29L13 28L14 28L14 29L15 29L15 28L14 28L14 27L16 27L16 28L17 28L17 27L18 27L18 28L20 28L20 29L21 29L21 28L22 28L22 29L26 29L26 28L24 28L24 27L23 27L23 28L22 28L22 27L21 27L21 25L23 25L23 26L24 26L24 25L26 25L26 26L25 26L25 27L26 27L26 26L27 26L27 25L26 25L26 24L29 24L29 25L31 25L31 24L30 24L30 22L29 22L29 21L28 21L28 22L27 22L27 21L26 21L26 20L25 20L25 19L28 19L28 20L29 20L29 18L30 18L30 21L33 21L33 20L34 20L34 19L33 19L33 20L31 20L31 19L32 19L32 18L30 18L30 17L33 17L33 18L34 18L34 17L35 17L35 16L34 16L34 15L33 15L33 14L32 14L32 16L31 16L31 14L30 14L30 13ZM15 14L15 15L14 15L14 16L15 16L15 17L17 17L17 18L18 18L18 19L19 19L19 18L20 18L20 17L21 17L21 16L22 16L22 17L23 17L23 18L24 18L24 17L23 17L23 16L22 16L22 15L23 15L23 14L22 14L22 15L21 15L21 16L20 16L20 17L19 17L19 16L17 16L17 15L16 15L16 14ZM24 14L24 15L25 15L25 14ZM29 14L29 16L28 16L28 15L27 15L27 16L28 16L28 17L26 17L26 18L28 18L28 17L30 17L30 14ZM33 16L33 17L34 17L34 16ZM10 17L10 19L11 19L11 17ZM18 17L18 18L19 18L19 17ZM6 19L6 20L7 20L7 19ZM14 19L14 20L15 20L15 19ZM9 20L9 21L10 21L10 22L11 22L11 20ZM16 22L16 23L17 23L17 24L16 24L16 25L15 25L15 26L16 26L16 27L17 27L17 26L18 26L18 27L20 27L20 25L19 25L19 24L18 24L18 23L17 23L17 22ZM25 22L25 23L24 23L24 24L26 24L26 22ZM28 22L28 23L29 23L29 22ZM22 23L22 24L23 24L23 23ZM4 24L4 25L3 25L3 26L4 26L4 25L5 25L5 26L7 26L7 25L5 25L5 24ZM9 25L9 27L10 27L10 28L11 28L11 25ZM16 25L16 26L17 26L17 25ZM4 28L4 29L5 29L5 28ZM29 29L29 32L32 32L32 29ZM33 29L33 30L34 30L34 29ZM30 30L30 31L31 31L31 30ZM14 31L14 32L15 32L15 31ZM33 32L33 33L34 33L34 36L36 36L36 35L35 35L35 33L34 33L34 32ZM30 34L30 35L31 35L31 36L32 36L32 35L33 35L33 34ZM0 0L0 7L7 7L7 0ZM1 1L1 6L6 6L6 1ZM2 2L2 5L5 5L5 2ZM30 0L30 7L37 7L37 0ZM31 1L31 6L36 6L36 1ZM32 2L32 5L35 5L35 2ZM0 30L0 37L7 37L7 30ZM1 31L1 36L6 36L6 31ZM2 32L2 35L5 35L5 32Z" fill="#000000"/></g></g></svg>
