<?xml version="1.0" encoding="UTF-8"?>
<svg xmlns="http://www.w3.org/2000/svg" version="1.1" width="300" height="300" viewBox="0 0 300 300"><rect x="0" y="0" width="300" height="300" fill="#ffffff"/><g transform="scale(8.108)"><g transform="translate(0,0)"><path fill-rule="evenodd" d="M10 0L10 2L11 2L11 0ZM12 0L12 1L13 1L13 2L12 2L12 4L13 4L13 5L11 5L11 6L10 6L10 4L11 4L11 3L8 3L8 4L9 4L9 5L8 5L8 7L9 7L9 8L6 8L6 9L5 9L5 8L0 8L0 9L3 9L3 10L1 10L1 11L3 11L3 12L1 12L1 13L4 13L4 14L2 14L2 16L1 16L1 14L0 14L0 16L1 16L1 17L2 17L2 16L3 16L3 18L0 18L0 19L3 19L3 18L4 18L4 19L5 19L5 18L6 18L6 19L8 19L8 20L6 20L6 21L5 21L5 20L3 20L3 21L0 21L0 29L1 29L1 25L2 25L2 26L3 26L3 25L4 25L4 27L2 27L2 29L8 29L8 31L10 31L10 32L8 32L8 37L11 37L11 33L12 33L12 34L13 34L13 35L12 35L12 37L13 37L13 36L14 36L14 37L17 37L17 36L14 36L14 35L17 35L17 33L18 33L18 32L19 32L19 33L20 33L20 34L21 34L21 33L23 33L23 34L22 34L22 35L19 35L19 34L18 34L18 35L19 35L19 36L22 36L22 37L23 37L23 36L24 36L24 37L25 37L25 35L26 35L26 37L27 37L27 36L29 36L29 35L30 35L30 37L37 37L37 33L35 33L35 32L34 32L34 31L37 31L37 30L35 30L35 28L34 28L34 27L36 27L36 28L37 28L37 26L36 26L36 25L37 25L37 22L36 22L36 21L37 21L37 18L36 18L36 17L37 17L37 14L36 14L36 13L35 13L35 12L34 12L34 11L35 11L35 9L36 9L36 8L35 8L35 9L34 9L34 8L33 8L33 9L34 9L34 11L32 11L32 12L31 12L31 10L30 10L30 8L29 8L29 6L28 6L28 5L26 5L26 4L27 4L27 3L24 3L24 2L25 2L25 1L24 1L24 2L23 2L23 1L22 1L22 0L21 0L21 1L20 1L20 0L19 0L19 1L20 1L20 2L18 2L18 1L17 1L17 2L16 2L16 1L15 1L15 0L14 0L14 1L13 1L13 0ZM26 0L26 2L28 2L28 4L29 4L29 0L28 0L28 1L27 1L27 0ZM8 1L8 2L9 2L9 1ZM21 1L21 2L20 2L20 3L18 3L18 2L17 2L17 3L16 3L16 4L15 4L15 2L13 2L13 3L14 3L14 4L15 4L15 5L13 5L13 7L12 7L12 6L11 6L11 7L12 7L12 9L11 9L11 8L10 8L10 9L9 9L9 10L8 10L8 11L6 11L6 12L7 12L7 13L5 13L5 10L4 10L4 13L5 13L5 14L9 14L9 16L11 16L11 15L10 15L10 12L9 12L9 13L8 13L8 11L10 11L10 9L11 9L11 14L14 14L14 13L15 13L15 14L16 14L16 15L17 15L17 17L15 17L15 16L14 16L14 15L12 15L12 17L6 17L6 18L10 18L10 19L9 19L9 20L8 20L8 21L6 21L6 22L5 22L5 23L4 23L4 22L3 22L3 23L2 23L2 22L1 22L1 24L3 24L3 23L4 23L4 25L5 25L5 26L7 26L7 27L6 27L6 28L8 28L8 26L7 26L7 25L5 25L5 23L6 23L6 24L7 24L7 23L8 23L8 21L10 21L10 22L9 22L9 24L10 24L10 25L9 25L9 29L11 29L11 30L10 30L10 31L11 31L11 30L13 30L13 31L12 31L12 33L15 33L15 32L16 32L16 31L17 31L17 32L18 32L18 31L20 31L20 33L21 33L21 31L20 31L20 30L22 30L22 31L23 31L23 32L24 32L24 30L25 30L25 32L26 32L26 33L24 33L24 34L23 34L23 35L22 35L22 36L23 36L23 35L25 35L25 34L26 34L26 33L27 33L27 34L29 34L29 33L27 33L27 32L26 32L26 30L27 30L27 31L28 31L28 30L27 30L27 29L28 29L28 27L27 27L27 26L28 26L28 25L29 25L29 27L30 27L30 26L31 26L31 28L33 28L33 27L34 27L34 26L35 26L35 25L34 25L34 24L36 24L36 23L34 23L34 24L33 24L33 25L32 25L32 24L31 24L31 23L32 23L32 22L33 22L33 21L34 21L34 22L35 22L35 21L34 21L34 20L36 20L36 19L35 19L35 17L36 17L36 14L35 14L35 15L34 15L34 13L30 13L30 10L29 10L29 11L28 11L28 12L27 12L27 13L24 13L24 14L23 14L23 13L22 13L22 12L21 12L21 10L18 10L18 9L23 9L23 10L22 10L22 11L24 11L24 12L26 12L26 11L27 11L27 10L28 10L28 9L29 9L29 8L28 8L28 6L27 6L27 9L26 9L26 11L24 11L24 10L25 10L25 8L26 8L26 6L25 6L25 4L22 4L22 5L23 5L23 7L22 7L22 6L21 6L21 7L20 7L20 5L19 5L19 4L20 4L20 3L21 3L21 2L22 2L22 1ZM16 4L16 5L15 5L15 6L14 6L14 7L15 7L15 6L16 6L16 7L17 7L17 6L18 6L18 8L20 8L20 7L19 7L19 5L17 5L17 4ZM9 6L9 7L10 7L10 6ZM24 6L24 8L25 8L25 6ZM21 7L21 8L22 8L22 7ZM13 8L13 9L12 9L12 10L13 10L13 11L12 11L12 13L14 13L14 12L15 12L15 13L17 13L17 15L18 15L18 16L19 16L19 17L18 17L18 18L14 18L14 17L12 17L12 18L13 18L13 19L12 19L12 21L13 21L13 20L14 20L14 21L15 21L15 23L14 23L14 24L15 24L15 25L12 25L12 23L13 23L13 22L10 22L10 24L11 24L11 25L12 25L12 26L13 26L13 27L12 27L12 29L13 29L13 28L14 28L14 29L15 29L15 28L14 28L14 27L16 27L16 28L17 28L17 29L16 29L16 30L15 30L15 31L14 31L14 32L15 32L15 31L16 31L16 30L17 30L17 31L18 31L18 30L20 30L20 29L21 29L21 28L23 28L23 29L22 29L22 30L24 30L24 28L25 28L25 29L26 29L26 28L27 28L27 27L26 27L26 26L27 26L27 25L26 25L26 24L29 24L29 25L31 25L31 24L30 24L30 22L29 22L29 21L28 21L28 22L27 22L27 21L26 21L26 20L25 20L25 19L28 19L28 20L29 20L29 18L30 18L30 21L33 21L33 20L34 20L34 19L33 19L33 20L31 20L31 19L32 19L32 18L30 18L30 17L33 17L33 18L34 18L34 17L35 17L35 16L34 16L34 15L33 15L33 14L32 14L32 16L31 16L31 14L30 14L30 13L28 13L28 14L26 14L26 16L24 16L24 15L22 15L22 14L21 14L21 13L20 13L20 12L19 12L19 13L17 13L17 11L16 11L16 10L17 10L17 9L16 9L16 8L15 8L15 9L14 9L14 8ZM31 8L31 9L32 9L32 8ZM6 9L6 10L7 10L7 9ZM13 9L13 10L14 10L14 11L13 11L13 12L14 12L14 11L15 11L15 10L16 10L16 9L15 9L15 10L14 10L14 9ZM36 10L36 11L37 11L37 10ZM19 13L19 14L18 14L18 15L21 15L21 14L20 14L20 13ZM29 14L29 16L28 16L28 15L27 15L27 16L28 16L28 17L26 17L26 18L28 18L28 17L30 17L30 14ZM4 15L4 16L7 16L7 15ZM20 16L20 17L19 17L19 20L18 20L18 19L17 19L17 20L18 20L18 22L19 22L19 23L20 23L20 25L21 25L21 23L20 23L20 22L19 22L19 21L20 21L20 19L22 19L22 20L21 20L21 21L22 21L22 20L24 20L24 21L23 21L23 22L22 22L22 24L23 24L23 23L24 23L24 24L26 24L26 22L25 22L25 20L24 20L24 19L25 19L25 17L24 17L24 16L23 16L23 17L22 17L22 16ZM33 16L33 17L34 17L34 16ZM4 17L4 18L5 18L5 17ZM20 17L20 18L22 18L22 19L23 19L23 18L24 18L24 17L23 17L23 18L22 18L22 17ZM10 19L10 21L11 21L11 19ZM14 19L14 20L15 20L15 19ZM6 22L6 23L7 23L7 22ZM28 22L28 23L29 23L29 22ZM15 23L15 24L16 24L16 25L15 25L15 26L16 26L16 27L17 27L17 28L18 28L18 29L17 29L17 30L18 30L18 29L19 29L19 28L21 28L21 26L19 26L19 27L18 27L18 26L16 26L16 25L17 25L17 24L18 24L18 25L19 25L19 24L18 24L18 23ZM23 25L23 28L24 28L24 26L26 26L26 25ZM25 27L25 28L26 28L26 27ZM29 29L29 32L32 32L32 29ZM33 29L33 30L34 30L34 29ZM30 30L30 31L31 31L31 30ZM33 32L33 33L34 33L34 36L36 36L36 35L35 35L35 33L34 33L34 32ZM9 33L9 34L10 34L10 33ZM30 34L30 35L31 35L31 36L32 36L32 35L33 35L33 34ZM9 35L9 36L10 36L10 35ZM0 0L0 7L7 7L7 0ZM1 1L1 6L6 6L6 1ZM2 2L2 5L5 5L5 2ZM30 0L30 7L37 7L37 0ZM31 1L31 6L36 6L36 1ZM32 2L32 5L35 5L35 2ZM0 30L0 37L7 37L7 30ZM1 31L1 36L6 36L6 31ZM2 32L2 35L5 35L5 32Z" fill="#000000"/></g></g></svg>
